<svg width="27" height="21" viewBox="0 0 27 21" fill="none" xmlns="http://www.w3.org/2000/svg">
<path d="M8.65695 15.1224L22.9439 0.673468C23.3879 0.224489 23.9529 0 24.639 0C25.3251 0 25.8901 0.224489 26.3341 0.673468C26.778 1.12245 27 1.69388 27 2.38775C27 3.08163 26.778 3.65306 26.3341 4.10204L10.352 20.2653C9.86771 20.7551 9.30269 21 8.65695 21C8.01121 21 7.44619 20.7551 6.96188 20.2653L0.665918 13.898C0.221972 13.449 0 12.8775 0 12.1837C0 11.4898 0.221972 10.9184 0.665918 10.4694C1.10986 10.0204 1.67489 9.79592 2.36099 9.79592C3.04708 9.79592 3.61211 10.0204 4.05605 10.4694L8.65695 15.1224Z" fill="#F2B6BB"/>
</svg>
