<svg width="24" height="24" viewBox="0 0 24 24" fill="none" xmlns="http://www.w3.org/2000/svg">
<path fill-rule="evenodd" clip-rule="evenodd" d="M16.242 3.515C16.7925 2.96462 17.5354 2.64977 18.3137 2.63697C19.0921 2.62416 19.8449 2.91439 20.4132 3.44636C20.9815 3.97832 21.3208 4.71037 21.3594 5.48785C21.398 6.26533 21.1329 7.02737 20.62 7.613L20.485 7.757L19.778 8.464L20.485 9.172C20.8387 9.52586 21.0469 9.99942 21.0685 10.4992C21.0902 10.9991 20.9237 11.4889 20.602 11.872L20.485 12L16.243 16.243C16.0635 16.4243 15.8214 16.53 15.5665 16.5387C15.3115 16.5473 15.0629 16.4582 14.8714 16.2895C14.68 16.1209 14.5603 15.8854 14.5368 15.6314C14.5133 15.3773 14.5878 15.1239 14.745 14.923L14.828 14.828L19.071 10.586L18.364 9.879L8.48602 19.757C8.36349 19.8795 8.21376 19.9713 8.04902 20.025L7.92402 20.058L4.43302 20.756C4.27964 20.7869 4.12118 20.7817 3.97015 20.7409C3.81911 20.7 3.67962 20.6247 3.56269 20.5207C3.44575 20.4168 3.35456 20.2871 3.29631 20.1419C3.23806 19.9967 3.21434 19.8399 3.22702 19.684L3.24402 19.567L3.94202 16.077C3.97594 15.9069 4.04961 15.7472 4.15702 15.611L4.24302 15.514L16.243 3.514L16.242 3.515ZM6.34402 16.242L5.85102 16.736L5.49702 18.503L7.26502 18.15L7.75802 17.657L6.34402 16.242ZM15.537 7.05L7.75802 14.828L9.17302 16.243L16.951 8.464L15.537 7.05V7.05ZM19.07 4.93C18.8978 4.75782 18.6687 4.65439 18.4257 4.63911C18.1827 4.62383 17.9424 4.69775 17.75 4.847L17.656 4.93L16.949 5.637L18.363 7.051L19.07 6.344L19.153 6.25C19.3023 6.05759 19.3762 5.81734 19.3609 5.57432C19.3456 5.33129 19.2422 5.10219 19.07 4.93Z" fill="#848484"/>
</svg>
