<svg width="40" height="40" viewBox="0 0 40 40" fill="none" xmlns="http://www.w3.org/2000/svg">
<path d="M38.4616 18.4615H21.5389V1.53846C21.5389 1.13044 21.3768 0.739123 21.0883 0.450605C20.7998 0.162088 20.4085 0 20.0005 0C19.5925 0 19.2012 0.162088 18.9127 0.450605C18.6242 0.739123 18.4621 1.13044 18.4621 1.53846V18.4615H1.53943C1.13142 18.4615 0.740112 18.6236 0.451602 18.9121C0.163092 19.2007 0.0010081 19.592 0.0010081 20C-0.00658344 20.1999 0.0287717 20.3992 0.10469 20.5843C0.180609 20.7695 0.295327 20.9362 0.441115 21.0732C0.586902 21.2102 0.760371 21.3144 0.949831 21.3788C1.13929 21.4431 1.34034 21.4661 1.53943 21.4462H18.4621V38.4615C18.4621 38.8696 18.6242 39.2609 18.9127 39.5494C19.2012 39.8379 19.5925 40 20.0005 40C20.4085 40 20.7998 39.8379 21.0883 39.5494C21.3768 39.2609 21.5389 38.8696 21.5389 38.4615V21.5385H38.4616C38.8696 21.5385 39.2609 21.3764 39.5494 21.0879C39.8379 20.7993 40 20.408 40 20C40 19.592 39.8379 19.2007 39.5494 18.9121C39.2609 18.6236 38.8696 18.4615 38.4616 18.4615Z" fill="white"/>
</svg>
